999
Created by Soft Gold Ltd. www.cadsofttools.com
999
ABViewer 10; 
  0
SECTION
  2
HEADER
  9
$ACADVER
  1
AC1004
  9
$DWGCODEPAGE
  3
ANSI_1251
  9
$CLAYER
  8
0
  9
$CELTYPE
  6
BYLAYER
  9
$CELTSCALE
 40
1
  9
$CELWEIGHT
370
-1
  9
$DIMALT
 70
0
  9
$DIMALTF
 40
1
  9
$DIMAPOST
  1

  9
$DIMSCALE
 40
1
  9
$DIMASZ
 40
0.18
  9
$DIMCLRD
 70
0
  9
$DIMCLRE
 70
0
  9
$DIMCLRT
 70
0
  9
$DIMEXE
 40
0.18
  9
$DIMEXO
 40
0.0625
  9
$DIMGAP
 40
0.0625
  9
$DIMLFAC
 40
1
  9
$DIMDEC
 70
4
  9
$DIMTAD
 70
0
  9
$DIMCEN
 40
0.09
  9
$DIMTIH
 70
1
  9
$DIMTIX
 70
0
  9
$DIMTOH
 70
1
  9
$DIMSE1
 70
0
  9
$DIMSE2
 70
0
  9
$DIMSD1
 70
0
  9
$DIMSD2
 70
0
  9
$DIMLWD
 70
-1
  9
$DIMLWE
 70
-1
  9
$DIMPOST
  1

  9
$DIMSAH
 70
0
  9
$DIMBLK
  1

  9
$DIMBLK1
  1

  9
$DIMBLK2
  1

  9
$DIMLDRBLK
  1

  9
$DIMSTYLE
  2
STANDARD
  9
$DIMTXT
 40
0.18
  9
$DIMTXSTY
  7
STANDARD
  9
$TEXTSIZE
 40
0.18
  9
$TEXTSTYLE
  7
STANDARD
  9
$FILLETRAD
 40
0.5
  9
$INSUNITS
 70
4
  9
$LIMMIN
 10
-19.999999253833
 20
-19.999999253833
  9
$LIMMAX
 10
7.46166989529229E-7
 20
7.46166989529229E-7
  9
$LTSCALE
 40
1
  9
$MEASUREMENT
 70
0
  9
$ATTMODE
 70
1
  9
$PDMODE
 70
0
  9
$PDSIZE
 40
0
  9
$TILEMODE
 70
1
  9
$UCSORG
 10
0
 20
0
 30
0
  9
$UCSXDIR
 10
1
 20
0
 30
0
  9
$UCSYDIR
 10
0
 20
1
 30
0
  9
$INSBASE
 10
0
 20
0
 30
0
  0
ENDSEC
  0
SECTION
  2
TABLES
  0
TABLE
  2
APPID
  0
APPID
  2
ACAD
 70
0
  0
APPID
  2
AcDbAttr
 70
0
  0
APPID
  2
ABViewer
 70
0
  0
ENDTAB
  0
TABLE
  2
STYLE
  0
STYLE
  2
STANDARD
 70
0
 40
0
 41
1
 50
0
 71
0
 42
2.5
  3
arial.ttf
  4

  0
ENDTAB
  0
TABLE
  2
LTYPE
  0
LTYPE
  2
CONTINUOUS
 70
0
  3

 72
65
 73
0
 40
0
  0
LTYPE
  2
BYLAYER
 70
0
  3

 72
65
 73
0
 40
0
  0
LTYPE
  2
BYBLOCK
 70
0
  3

 72
65
 73
0
 40
0
  0
LTYPE
  2
CENTER
 70
0
  3
_ _ 
 72
65
 73
4
 40
2
 49
1.25
 49
-0.25
 49
0.25
 49
-0.25
  0
LTYPE
  2
ISO_dash
 70
0
  3
_ 
 72
65
 73
2
 40
1.5
 49
1.2
 49
-0.3
  0
LTYPE
  2
ISO_dot
 70
0
  3
. 
 72
65
 73
2
 40
0.3
 49
0
 49
-0.3
  0
LTYPE
  2
ISO_dash_dot
 70
0
  3
_ . 
 72
65
 73
4
 40
1.8
 49
1.2
 49
-0.3
 49
0
 49
-0.3
  0
LTYPE
  2
ISO_dash_double-dot
 70
0
  3
_ . . 
 72
65
 73
6
 40
2.1
 49
1.2
 49
-0.3
 49
0
 49
-0.3
 49
0
 49
-0.3
  0
LTYPE
  2
ISO_dash_triple-dot
 70
0
  3
_ . . . 
 72
65
 73
8
 40
2.4
 49
1.2
 49
-0.3
 49
0
 49
-0.3
 49
0
 49
-0.3
 49
0
 49
-0.3
  0
LTYPE
  2
ISO_dash_long_gaps
 70
0
  3
_ 
 72
65
 73
2
 40
3
 49
1.2
 49
-1.8
  0
ENDTAB
  0
TABLE
  2
LAYER
  0
LAYER
  2
0
 70
0
 62
7
  6
CONTINUOUS
  0
ENDTAB
  0
TABLE
  2
VPORT
  0
VPORT
  2
*ACTIVE
 70
0
 10
0
 20
0
 11
1
 21
1
 12
-9.99999925383301
 22
-9.99999925383301
 13
0
 23
0
 14
1
 24
1
 15
1
 25
1
 16
0
 26
0
 36
1
 17
0
 27
0
 37
0
 40
20.0274725274725
 41
2.26337448559671
 42
50
 43
0
 44
0
 50
0
 51
-90
 71
0
 72
100
 73
1
 74
1
 75
0
 76
0
 77
0
 78
0
  0
ENDTAB
  0
TABLE
  2
VIEW
  0
ENDTAB
  0
TABLE
  2
UCS
  0
ENDTAB
  0
ENDSEC
  0
SECTION
  2
BLOCKS
  0
BLOCK
  8
0
  2
$MODEL_SPACE
 70
0
 10
0
 20
0
  0
ENDBLK
  8
0
  0
BLOCK
  8
0
  2
$PAPER_SPACE
 70
0
 10
0
 20
0
  0
ENDBLK
  8
0
  0
BLOCK
  8
0
  2
*DEFS
 70
1
 10
0
 20
0
 30
0
  3
*DEFS
  1

  0
ENDBLK
  8
0
  0
BLOCK
  8
0
  2
*BLOCK_DEF
 70
1
 10
0
 20
0
 30
0
  3
*BLOCK_DEF
  1

  0
INSERT
  8
0
 62
0
  2
*DEFS
 10
0
 20
0
 30
0
 41
1
 42
1
 43
1
  0
ENDBLK
  8
0
  0
BLOCK
  8
0
  2
*IB-4A41530
 70
1
 10
0
 20
0
 30
0
  3
*IB-4A41530
  1

  0
HATCH
  8
0
 62
0
 10
0
 20
0
 30
0
210
0
220
0
230
1
  2
SOLID
 70
1
 71
0
 91
1
 92
1
 93
139
 72
1
 10
-7.46167017950938E-7
 20
2.92968988418579
 11
-1.28061003579205E-7
 21
17.0702991485596
 72
1
 10
-1.28061003579205E-7
 20
17.0702991485596
 11
0.00677234857696021
 21
17.2705712808227
 72
1
 10
0.00677234857696021
 20
17.2705712808227
 11
0.0267965085264759
 21
17.4672691369498
 72
1
 10
0.0267965085264759
 20
17.4672691369498
 11
0.0596324733186438
 21
17.6599528305233
 72
1
 10
0.0596324733186438
 20
17.6599528305233
 11
0.104840364484565
 21
17.8481824751254
 72
1
 10
0.104840364484565
 20
17.8481824751254
 11
0.161980303555339
 21
18.0315181843385
 72
1
 10
0.161980303555339
 20
18.0315181843385
 11
0.230612412062066
 21
18.2095200717449
 72
1
 10
0.230612412062066
 20
18.2095200717449
 11
0.310296811535848
 21
18.3817482509271
 72
1
 10
0.310296811535848
 20
18.3817482509271
 11
0.400593623507785
 21
18.5477628354673
 72
1
 10
0.400593623507785
 20
18.5477628354673
 11
0.501062969508977
 21
18.7071239389479
 72
1
 10
0.501062969508977
 20
18.7071239389479
 11
0.611264971070524
 21
18.8593916749513
 72
1
 10
0.611264971070524
 20
18.8593916749513
 11
0.730759749723528
 21
19.0041261570597
 72
1
 10
0.730759749723528
 20
19.0041261570597
 11
0.859107426999088
 21
19.1408874988556
 72
1
 10
0.859107426999088
 20
19.1408874988556
 11
0.995868124428305
 21
19.2692358139212
 72
1
 10
0.995868124428305
 20
19.2692358139212
 11
1.14060196354228
 21
19.388731215839
 72
1
 10
1.14060196354228
 20
19.388731215839
 11
1.29286906587211
 21
19.4989338181913
 72
1
 10
1.29286906587211
 20
19.4989338181913
 11
1.4522295529489
 21
19.5994037345604
 72
1
 10
1.4522295529489
 20
19.5994037345604
 11
1.61824354630375
 21
19.6897010785286
 72
1
 10
1.61824354630375
 20
19.6897010785286
 11
1.79047116746776
 21
19.7693859636784
 72
1
 10
1.79047116746776
 20
19.7693859636784
 11
1.96847253797203
 21
19.838018503592
 72
1
 10
1.96847253797203
 20
19.838018503592
 11
2.15180777934766
 21
19.8951588118518
 72
1
 10
2.15180777934766
 20
19.8951588118518
 11
2.34003701312575
 21
19.9403670020401
 72
1
 10
2.34003701312575
 20
19.9403670020401
 11
2.5327203608374
 21
19.9732031877394
 72
1
 10
2.5327203608374
 20
19.9732031877394
 11
2.72941794401371
 21
19.9932274825319
 72
1
 10
2.72941794401371
 20
19.9932274825319
 11
2.92968988418579
 21
20
 72
1
 10
2.92968988418579
 20
20
 11
17.0702991485596
 21
20
 72
1
 10
17.0702991485596
 20
20
 11
17.2705712808227
 21
19.9932274825319
 72
1
 10
17.2705712808227
 20
19.9932274825319
 11
17.4672691369498
 21
19.9732031877394
 72
1
 10
17.4672691369498
 20
19.9732031877394
 11
17.6599528305233
 21
19.9403670020401
 72
1
 10
17.6599528305233
 20
19.9403670020401
 11
17.8481824751254
 21
19.8951588118518
 72
1
 10
17.8481824751254
 20
19.8951588118518
 11
18.0315181843385
 21
19.838018503592
 72
1
 10
18.0315181843385
 20
19.838018503592
 11
18.2095200717449
 21
19.7693859636784
 72
1
 10
18.2095200717449
 20
19.7693859636784
 11
18.3817482509271
 21
19.6897010785286
 72
1
 10
18.3817482509271
 20
19.6897010785286
 11
18.5477628354673
 21
19.5994037345604
 72
1
 10
18.5477628354673
 20
19.5994037345604
 11
18.7071239389479
 21
19.4989338181913
 72
1
 10
18.7071239389479
 20
19.4989338181913
 11
18.8593916749513
 21
19.388731215839
 72
1
 10
18.8593916749513
 20
19.388731215839
 11
19.0041261570597
 21
19.2692358139212
 72
1
 10
19.0041261570597
 20
19.2692358139212
 11
19.1408874988556
 21
19.1408874988556
 72
1
 10
19.1408874988556
 20
19.1408874988556
 11
19.2692358139212
 21
19.0041261570597
 72
1
 10
19.2692358139212
 20
19.0041261570597
 11
19.388731215839
 21
18.8593916749513
 72
1
 10
19.388731215839
 20
18.8593916749513
 11
19.4989338181913
 21
18.7071239389479
 72
1
 10
19.4989338181913
 20
18.7071239389479
 11
19.5994037345604
 21
18.5477628354673
 72
1
 10
19.5994037345604
 20
18.5477628354673
 11
19.6897010785286
 21
18.3817482509271
 72
1
 10
19.6897010785286
 20
18.3817482509271
 11
19.7693859636784
 21
18.2095200717449
 72
1
 10
19.7693859636784
 20
18.2095200717449
 11
19.838018503592
 21
18.0315181843385
 72
1
 10
19.838018503592
 20
18.0315181843385
 11
19.8951588118518
 21
17.8481824751253
 72
1
 10
19.8951588118518
 20
17.8481824751253
 11
19.9403670020401
 21
17.6599528305233
 72
1
 10
19.9403670020401
 20
17.6599528305233
 11
19.9732031877394
 21
17.4672691369498
 72
1
 10
19.9732031877394
 20
17.4672691369498
 11
19.9932274825319
 21
17.2705712808227
 72
1
 10
19.9932274825319
 20
17.2705712808227
 11
20
 21
17.0702991485596
 72
1
 10
20
 20
17.0702991485596
 11
20
 21
11.1718997955322
 72
1
 10
20
 20
11.1718997955322
 11
12.9296998977661
 21
11.1718997955322
 72
1
 10
12.9296998977661
 20
11.1718997955322
 11
12.9296998977661
 21
13.5156002044678
 72
1
 10
12.9296998977661
 20
13.5156002044678
 11
9.41405963897705
 21
13.5156002044678
 72
1
 10
9.41405963897705
 20
13.5156002044678
 11
9.41405963897705
 21
11.1718997955322
 72
1
 10
9.41405963897705
 20
11.1718997955322
 11
7.03125
 21
11.1718997955322
 72
1
 10
7.03125
 20
11.1718997955322
 11
6.79089264499231
 21
11.1637740715372
 72
1
 10
6.79089264499231
 20
11.1637740715372
 11
6.55482977545924
 21
11.1397485804779
 72
1
 10
6.55482977545924
 20
11.1397485804779
 11
6.32358889561146
 21
11.1003508437425
 72
1
 10
6.32358889561146
 20
11.1003508437425
 11
6.09769750965966
 21
11.0461083827195
 72
1
 10
6.09769750965966
 20
11.0461083827195
 11
5.8776831218145
 21
10.9775487187974
 72
1
 10
5.8776831218145
 20
10.9775487187974
 11
5.66407323628664
 21
10.8951993733644
 72
1
 10
5.66407323628664
 20
10.8951993733644
 11
5.45739535728677
 21
10.7995878678091
 72
1
 10
5.45739535728677
 20
10.7995878678091
 11
5.25817698902554
 21
10.6912417235198
 72
1
 10
5.25817698902554
 20
10.6912417235198
 11
5.06694563571364
 21
10.5706884618849
 72
1
 10
5.06694563571364
 20
10.5706884618849
 11
4.88422880156172
 21
10.4384556042927
 72
1
 10
4.88422880156172
 20
10.4384556042927
 11
4.71055399078048
 21
10.2950706721318
 72
1
 10
4.71055399078048
 20
10.2950706721318
 11
4.54644870758057
 21
10.1410611867905
 72
1
 10
4.54644870758057
 20
10.1410611867905
 11
4.39244045617266
 21
9.97695466965713
 72
1
 10
4.39244045617266
 20
9.97695466965713
 11
4.24905674076743
 21
9.80327864212019
 72
1
 10
4.24905674076743
 20
9.80327864212019
 11
4.11682506557554
 21
9.62056062556803
 72
1
 10
4.11682506557554
 20
9.62056062556803
 11
3.99627293480767
 21
9.42932814138907
 72
1
 10
3.99627293480767
 20
9.42932814138907
 11
3.88792785267449
 21
9.2301087109717
 72
1
 10
3.88792785267449
 20
9.2301087109717
 11
3.79231732338667
 21
9.02342985570431
 72
1
 10
3.79231732338667
 20
9.02342985570431
 11
3.70996885115488
 21
8.80981909697531
 72
1
 10
3.70996885115488
 20
8.80981909697531
 11
3.64140994018979
 21
8.58980395617309
 72
1
 10
3.64140994018979
 20
8.58980395617309
 11
3.58716809470207
 21
8.36391195468605
 72
1
 10
3.58716809470207
 20
8.36391195468605
 11
3.54777081890239
 21
8.13267061390259
 72
1
 10
3.54777081890239
 20
8.13267061390259
 11
3.52374561700142
 21
7.89660745521111
 72
1
 10
3.52374561700142
 20
7.89660745521111
 11
3.51561999320984
 21
7.65625
 72
1
 10
3.51561999320984
 20
7.65625
 11
3.51561999320984
 21
4.10156011581421
 72
1
 10
3.51561999320984
 20
4.10156011581421
 11
7.03125
 21
4.10156011581421
 72
1
 10
7.03125
 20
4.10156011581421
 11
7.03125
 21
7.65625
 72
1
 10
7.03125
 20
7.65625
 11
9.41405963897705
 21
7.65625
 72
1
 10
9.41405963897705
 20
7.65625
 11
9.41405963897705
 21
4.10156011581421
 72
1
 10
9.41405963897705
 20
4.10156011581421
 11
12.9296998977661
 21
4.6875
 72
1
 10
12.9296998977661
 20
4.6875
 11
12.9296998977661
 21
7.65625
 72
1
 10
12.9296998977661
 20
7.65625
 11
20
 21
7.65625
 72
1
 10
20
 20
7.65625
 11
20
 21
2.92968988418579
 72
1
 10
20
 20
2.92968988418579
 11
19.9932274825319
 21
2.72941794017899
 72
1
 10
19.9932274825319
 20
2.72941794017899
 11
19.9732031877394
 21
2.5327203459788
 72
1
 10
19.9732031877394
 20
2.5327203459788
 11
19.9403670020401
 21
2.34003698077452
 72
1
 10
19.9403670020401
 20
2.34003698077452
 11
19.8951588118518
 21
2.1518077237555
 72
1
 10
19.8951588118518
 20
2.1518077237555
 11
19.838018503592
 21
1.96847245411104
 72
1
 10
19.838018503592
 20
1.96847245411104
 11
19.7693859636784
 21
1.79047105103047
 72
1
 10
19.7693859636784
 20
1.79047105103047
 11
19.6897010785286
 21
1.61824339370311
 72
1
 10
19.6897010785286
 20
1.61824339370311
 11
19.5994037345604
 21
1.45222936131829
 72
1
 10
19.5994037345604
 20
1.45222936131829
 11
19.4989338181913
 21
1.29286883306533
 72
1
 10
19.4989338181913
 20
1.29286883306533
 11
19.388731215839
 21
1.14060168813354
 72
1
 10
19.388731215839
 20
1.14060168813354
 11
19.2692358139212
 21
0.995867805712259
 72
1
 10
19.2692358139212
 20
0.995867805712259
 11
19.1408874988556
 21
0.859107064990802
 72
1
 10
19.1408874988556
 20
0.859107064990802
 11
19.0041261570597
 21
0.730759345158492
 72
1
 10
19.0041261570597
 20
0.730759345158492
 11
18.8593916749513
 21
0.611264525404651
 72
1
 10
18.8593916749513
 20
0.611264525404651
 11
18.7071239389479
 21
0.501062484918602
 72
1
 10
18.7071239389479
 20
0.501062484918602
 11
18.5477628354673
 21
0.400593102889667
 72
1
 10
18.5477628354673
 20
0.400593102889667
 11
18.3817482509271
 21
0.310296258507168
 72
1
 10
18.3817482509271
 20
0.310296258507168
 11
18.2095200717449
 21
0.230611830960429
 72
1
 10
18.2095200717449
 20
0.230611830960429
 11
18.0315181843385
 21
0.16197969943877
 72
1
 10
18.0315181843385
 20
0.16197969943877
 11
17.8481824751253
 21
0.104839743131516
 72
1
 10
17.8481824751253
 20
0.104839743131516
 11
17.6599528305233
 21
0.0596318412279872
 72
1
 10
17.6599528305233
 20
0.0596318412279872
 11
17.4672691369498
 21
0.0267958729175072
 72
1
 10
17.4672691369498
 20
0.0267958729175072
 11
17.2705712808227
 21
0.00677171738939801
 72
1
 10
17.2705712808227
 20
0.00677171738939801
 11
17.0702991485596
 21
-7.46167017950938E-7
 72
1
 10
17.0702991485596
 20
-7.46167017950938E-7
 11
2.92968988418579
 21
-1.28061003579205E-7
 72
1
 10
2.92968988418579
 20
-1.28061003579205E-7
 11
2.72941794017899
 21
0.00677234857696021
 72
1
 10
2.72941794017899
 20
0.00677234857696021
 11
2.5327203459788
 21
0.0267965085264759
 72
1
 10
2.5327203459788
 20
0.0267965085264759
 11
2.34003698077452
 21
0.0596324733186438
 72
1
 10
2.34003698077452
 20
0.0596324733186438
 11
2.1518077237555
 21
0.104840364484565
 72
1
 10
2.1518077237555
 20
0.104840364484565
 11
1.96847245411104
 21
0.161980303555339
 72
1
 10
1.96847245411104
 20
0.161980303555339
 11
1.79047105103047
 21
0.230612412062066
 72
1
 10
1.79047105103047
 20
0.230612412062066
 11
1.61824339370311
 21
0.310296811535848
 72
1
 10
1.61824339370311
 20
0.310296811535848
 11
1.45222936131829
 21
0.400593623507785
 72
1
 10
1.45222936131829
 20
0.400593623507785
 11
1.29286883306533
 21
0.501062969508977
 72
1
 10
1.29286883306533
 20
0.501062969508977
 11
1.14060168813354
 21
0.611264971070524
 72
1
 10
1.14060168813354
 20
0.611264971070524
 11
0.995867805712259
 21
0.730759749723528
 72
1
 10
0.995867805712259
 20
0.730759749723528
 11
0.859107064990802
 21
0.859107426999088
 72
1
 10
0.859107064990802
 20
0.859107426999088
 11
0.730759345158492
 21
0.995868124428305
 72
1
 10
0.730759345158492
 20
0.995868124428305
 11
0.611264525404651
 21
1.14060196354228
 72
1
 10
0.611264525404651
 20
1.14060196354228
 11
0.501062484918602
 21
1.29286906587211
 72
1
 10
0.501062484918602
 20
1.29286906587211
 11
0.400593102889667
 21
1.4522295529489
 72
1
 10
0.400593102889667
 20
1.4522295529489
 11
0.310296258507168
 21
1.61824354630375
 72
1
 10
0.310296258507168
 20
1.61824354630375
 11
0.230611830960429
 21
1.79047116746776
 72
1
 10
0.230611830960429
 20
1.79047116746776
 11
0.16197969943877
 21
1.96847253797203
 72
1
 10
0.16197969943877
 20
1.96847253797203
 11
0.104839743131516
 21
2.15180777934766
 72
1
 10
0.104839743131516
 20
2.15180777934766
 11
0.0596318412279872
 21
2.34003701312575
 72
1
 10
0.0596318412279872
 20
2.34003701312575
 11
0.0267958729175072
 21
2.5327203608374
 72
1
 10
0.0267958729175072
 20
2.5327203608374
 11
0.00677171738939801
 21
2.72941794401371
 72
1
 10
0.00677171738939801
 20
2.72941794401371
 11
-7.46167017950938E-7
 21
2.92968988418579
 72
1
 10
-7.46167017950938E-7
 20
2.92968988418579
 11
-7.46167017950938E-7
 21
2.92968988418579
 97
0
 75
0
 76
1
 98
0
  0
ENDBLK
  8
0
  0
BLOCK
  8
0
  2
*IB-4A41430
 70
1
 10
0
 20
0
 30
0
  3
*IB-4A41430
  1

  0
INSERT
  8
0
 62
0
  2
*IB-4A41530
 10
0
 20
0
 30
0
 41
1
 42
1
 43
1
  0
ENDBLK
  8
0
  0
BLOCK
  8
0
  2
_CLOSEDFILLED
 70
0
 10
0
 20
0
 30
0
  3
_CLOSEDFILLED
  1

  0
SOLID
  8
0
 62
0
 10
-1
 20
0.166666666666667
 30
0
 11
0
 21
0
 31
0
 12
-1
 22
0.166666666666667
 32
0
 13
-1
 23
-0.166666666666667
 33
0
  0
LINE
  8
0
 62
0
 10
-1
 20
0
 30
0
 11
-2
 21
0
 31
0
  0
ENDBLK
  8
0
  0
BLOCK
  8
0
  2
ABVIEWER_REDLINE
 70
1
 10
0
 20
0
 30
0
  3
ABViewer_RedLine
  1

  0
ENDBLK
  8
0
  0
BLOCK
  8
0
  2
ABVIEWER
 70
0
 10
0
 20
0
 30
0
  3
ABViewer
  1

  0
MTEXT
  8
0
 62
0
 10
0
 20
0
 30
0
 40
0.05
  1

 50
0
 41
0.5
  7
STANDARD
 71
1
 73
1
 44
1
  0
ENDBLK
  8
0
  0
ENDSEC
  0
SECTION
  2
ENTITIES
  0
INSERT
  8
0
 62
0
  2
*IB-4A41430
 10
0
 20
0
 30
0
 41
0.99999996269165
 42
-0.99999996269165
 43
1
  0
INSERT
  8
0
  6
BYLAYER
  2
ABVIEWER
 10
-7.46166989529229E-7
 20
7.46166989529229E-7
 30
0
 41
6.66666666666667
 42
6.66666666666667
 43
1
  0
INSERT
  8
0
  6
BYLAYER
  2
ABVIEWER
 10
-7.46166989529229E-7
 20
-6.66666592049968
 30
0
 41
6.66666666666667
 42
6.66666666666667
 43
1
  0
INSERT
  8
0
  6
BYLAYER
  2
ABVIEWER
 10
-7.46166989529229E-7
 20
-13.3333325871663
 30
0
 41
6.66666666666667
 42
6.66666666666667
 43
1
  0
INSERT
  8
0
  6
BYLAYER
  2
ABVIEWER
 10
6.66666592049968
 20
7.46166989529229E-7
 30
0
 41
6.66666666666667
 42
6.66666666666667
 43
1
  0
INSERT
  8
0
  6
BYLAYER
  2
ABVIEWER
 10
6.66666592049968
 20
-6.66666592049968
 30
0
 41
6.66666666666667
 42
6.66666666666667
 43
1
  0
INSERT
  8
0
  6
BYLAYER
  2
ABVIEWER
 10
6.66666592049968
 20
-13.3333325871663
 30
0
 41
6.66666666666667
 42
6.66666666666667
 43
1
  0
INSERT
  8
0
  6
BYLAYER
  2
ABVIEWER
 10
13.3333325871663
 20
7.46166989529229E-7
 30
0
 41
6.66666666666667
 42
6.66666666666667
 43
1
  0
INSERT
  8
0
  6
BYLAYER
  2
ABVIEWER
 10
13.3333325871663
 20
-6.66666592049968
 30
0
 41
6.66666666666667
 42
6.66666666666667
 43
1
  0
INSERT
  8
0
  6
BYLAYER
  2
ABVIEWER
 10
13.3333325871663
 20
-13.3333325871663
 30
0
 41
6.66666666666667
 42
6.66666666666667
 43
1
  0
ENDSEC
  0
SECTION
  2
OBJECTS
  0
DICTIONARY
  5
3F
  3
ACAD_GROUP
350
40
  3
ACAD_MATERIAL
350
41
  3
ACAD_WIPEOUT_VARS
350
42
  3
ACAD_MLINESTYLE
350
43
  0
DICTIONARY
  5
40
  0
DICTIONARY
  5
41
  0
WIPEOUTVARIABLES
  5
42
 70
1
  0
DICTIONARY
  5
43
  3
STANDARD
350
44
  0
MLINESTYLE
  5
44
  2
STANDARD
 70
0
  3

 62
256
 51
90
 52
90
 71
2
 49
0.5
 62
256
  6
ByLayer
 49
-0.5
 62
256
  6
ByLayer
  0
ENDSEC
  0
EOF
