<?xml version="1.0" standalone="no"?>
<!DOCTYPE svg PUBLIC "-//W3C//DTD SVG 1.1//EN" "http://www.w3.org/Graphics/SVG/1.1/DTD/svg11.dtd">
<svg xmlns="http://www.w3.org/2000/svg" xmlns:xlink="http://www.w3.org/1999/xlink" viewBox="0 0 65535 65535">
  <title>Export to SVG</title>
  <desc>Generated by CADtoSVG Version 1.0: 22.08.2022 23:37:41</desc>
<polyline points="55935,0 9600,0 8944,22 8299,88 7668,195 7051,344 6450,531 5867,756 5303,1017 4759,1313 4236,1642 3737,2003 3263,2395 2815,2815 2395,3263 2003,3737 1642,4236 1313,4759 1017,5303 756,5867 531,6450 344,7051 195,7668 88,8299 22,8944 0,9600 0,55935 22,56591 88,57236 195,57867 344,58484 531,59085 756,59668 1017,60232 1313,60776 1642,61299 2003,61798 2395,62272 2815,62720 3263,63140 3737,63532 4236,63893 4759,64222 5303,64518 5867,64779 6450,65004 7051,65191 7668,65340 8299,65447 8944,65513 9600,65535 28927,65535 28927,42367 21248,42367 21248,30848 28927,30848 28927,23040 28954,22252 29033,21479 29162,20721 29340,19981 29564,19260 29834,18560 30147,17883 30502,17230 30897,16603 31331,16004 31801,15435 32305,14898 32843,14393 33412,13923 34011,13490 34637,13095 35290,12740 35967,12426 36667,12157 37388,11932 38129,11754 38886,11625 39660,11546 40447,11520 52095,11520 52095,23040 40447,23040 40447,30848 52095,30848 50175,42367 40447,42367 40447,65535 55935,65535 56591,65513 57236,65447 57867,65340 58484,65191 59085,65004 59668,64779 60232,64518 60776,64222 61299,63893 61798,63532 62272,63140 62720,62720 63140,62272 63532,61798 63893,61299 64222,60776 64518,60232 64779,59668 65004,59085 65191,58484 65340,57867 65447,57236 65513,56591 65535,55935 65535,9600 65513,8944 65447,8299 65340,7668 65191,7051 65004,6450 64779,5867 64518,5303 64222,4759 63893,4236 63532,3737 63140,3263 62720,2815 62272,2395 61798,2003 61299,1642 60776,1313 60232,1017 59668,756 59085,531 58484,344 57867,195 57236,88 56591,22 55935,0 55935,0 " style="stroke:None; fill:#000000; stroke-width:50;"/>
</svg>
